<mxfile host="app.diagrams.net" modified="2024-04-10T15:22:29.824Z" agent="Mozilla/5.0 (Windows NT 10.0; Win64; x64) AppleWebKit/537.36 (KHTML, like Gecko) Chrome/123.0.0.0 Safari/537.36" etag="dnlEe5oDhkZyaDvgFB5f" version="24.2.2" type="device">
  <diagram id="bc47vRQSer-DN1HRI0ml" name="Page-1">
    <mxGraphModel dx="882" dy="578" grid="1" gridSize="10" guides="1" tooltips="1" connect="1" arrows="1" fold="1" page="1" pageScale="1" pageWidth="850" pageHeight="1100" math="0" shadow="0">
      <root>
        <mxCell id="0" />
        <mxCell id="1" parent="0" />
        <mxCell id="uFdhozR7a8qt9g8662nj-1" value="" style="swimlane;startSize=0;" parent="1" vertex="1">
          <mxGeometry x="480" y="200" width="200" height="160" as="geometry" />
        </mxCell>
        <mxCell id="uFdhozR7a8qt9g8662nj-2" value="Topic A&lt;br&gt;Partition 2" style="rounded=1;whiteSpace=wrap;html=1;" parent="uFdhozR7a8qt9g8662nj-1" vertex="1">
          <mxGeometry x="40" y="40" width="120" height="60" as="geometry" />
        </mxCell>
        <mxCell id="uFdhozR7a8qt9g8662nj-3" value="Broker 2" style="text;html=1;align=center;verticalAlign=middle;whiteSpace=wrap;rounded=0;" parent="uFdhozR7a8qt9g8662nj-1" vertex="1">
          <mxGeometry x="120" y="130" width="80" height="30" as="geometry" />
        </mxCell>
        <mxCell id="uFdhozR7a8qt9g8662nj-4" value="" style="swimlane;startSize=0;" parent="1" vertex="1">
          <mxGeometry x="80" y="200" width="200" height="160" as="geometry" />
        </mxCell>
        <mxCell id="uFdhozR7a8qt9g8662nj-5" value="Coordinator of group 1" style="rounded=1;whiteSpace=wrap;html=1;" parent="uFdhozR7a8qt9g8662nj-4" vertex="1">
          <mxGeometry x="40" y="40" width="120" height="60" as="geometry" />
        </mxCell>
        <mxCell id="uFdhozR7a8qt9g8662nj-6" value="Broker 1" style="text;html=1;align=center;verticalAlign=middle;whiteSpace=wrap;rounded=0;" parent="uFdhozR7a8qt9g8662nj-4" vertex="1">
          <mxGeometry x="120" y="130" width="80" height="30" as="geometry" />
        </mxCell>
        <mxCell id="0tATDnidM9Hhb5v2h0MR-2" style="edgeStyle=orthogonalEdgeStyle;rounded=0;orthogonalLoop=1;jettySize=auto;html=1;exitX=0;exitY=0.5;exitDx=0;exitDy=0;entryX=0.5;entryY=0;entryDx=0;entryDy=0;" edge="1" parent="1" source="0tATDnidM9Hhb5v2h0MR-1" target="uFdhozR7a8qt9g8662nj-5">
          <mxGeometry relative="1" as="geometry" />
        </mxCell>
        <mxCell id="0tATDnidM9Hhb5v2h0MR-4" style="edgeStyle=orthogonalEdgeStyle;rounded=0;orthogonalLoop=1;jettySize=auto;html=1;exitX=1;exitY=0.5;exitDx=0;exitDy=0;" edge="1" parent="1" source="0tATDnidM9Hhb5v2h0MR-1" target="uFdhozR7a8qt9g8662nj-2">
          <mxGeometry relative="1" as="geometry" />
        </mxCell>
        <mxCell id="0tATDnidM9Hhb5v2h0MR-1" value="Consumer" style="rounded=1;whiteSpace=wrap;html=1;" vertex="1" parent="1">
          <mxGeometry x="320" y="40" width="120" height="60" as="geometry" />
        </mxCell>
        <mxCell id="0tATDnidM9Hhb5v2h0MR-3" style="edgeStyle=orthogonalEdgeStyle;rounded=0;orthogonalLoop=1;jettySize=auto;html=1;exitX=1;exitY=0.5;exitDx=0;exitDy=0;entryX=0.25;entryY=1;entryDx=0;entryDy=0;" edge="1" parent="1" source="uFdhozR7a8qt9g8662nj-5" target="0tATDnidM9Hhb5v2h0MR-1">
          <mxGeometry relative="1" as="geometry" />
        </mxCell>
        <mxCell id="0tATDnidM9Hhb5v2h0MR-5" style="edgeStyle=orthogonalEdgeStyle;rounded=0;orthogonalLoop=1;jettySize=auto;html=1;exitX=0;exitY=0.5;exitDx=0;exitDy=0;entryX=0.75;entryY=1;entryDx=0;entryDy=0;" edge="1" parent="1" source="uFdhozR7a8qt9g8662nj-2" target="0tATDnidM9Hhb5v2h0MR-1">
          <mxGeometry relative="1" as="geometry" />
        </mxCell>
        <mxCell id="0tATDnidM9Hhb5v2h0MR-6" value="Join consumer group 1 and subscribe topic A" style="text;html=1;align=center;verticalAlign=middle;whiteSpace=wrap;rounded=0;" vertex="1" parent="1">
          <mxGeometry x="40" y="40" width="280" height="30" as="geometry" />
        </mxCell>
        <mxCell id="0tATDnidM9Hhb5v2h0MR-7" value="Partition 2 dispatched" style="text;html=1;align=center;verticalAlign=middle;whiteSpace=wrap;rounded=0;" vertex="1" parent="1">
          <mxGeometry x="280" y="280" width="80" height="30" as="geometry" />
        </mxCell>
        <mxCell id="0tATDnidM9Hhb5v2h0MR-8" value="Fetch messages" style="text;html=1;align=center;verticalAlign=middle;whiteSpace=wrap;rounded=0;" vertex="1" parent="1">
          <mxGeometry x="400" y="280" width="80" height="30" as="geometry" />
        </mxCell>
        <mxCell id="0tATDnidM9Hhb5v2h0MR-9" value="Process data and commit offset" style="text;html=1;align=center;verticalAlign=middle;whiteSpace=wrap;rounded=0;" vertex="1" parent="1">
          <mxGeometry x="440" y="40" width="240" height="30" as="geometry" />
        </mxCell>
      </root>
    </mxGraphModel>
  </diagram>
</mxfile>
